<?xml version="1.0" encoding="UTF-8" standalone="no"?>
<!DOCTYPE svg PUBLIC "-//W3C//DTD SVG 1.1//EN"
 "http://www.w3.org/Graphics/SVG/1.1/DTD/svg11.dtd">
<!-- Generated by graphviz version 2.36.0 (20140111.2315)
 -->
<!-- Title: G Pages: 1 -->
<svg width="847pt" height="2260pt"
 viewBox="0.00 0.00 847.00 2260.00" xmlns="http://www.w3.org/2000/svg" xmlns:xlink="http://www.w3.org/1999/xlink">
<g id="graph0" class="graph" transform="scale(1 1) rotate(0) translate(4 2256)">
<title>G</title>
<polygon fill="white" stroke="none" points="-4,4 -4,-2256 843,-2256 843,4 -4,4"/>
<!-- n1 -->
<g id="node1" class="node"><title>n1</title>
<g id="a_node1"><a xlink:title="[./model/LSTM.lua]:43_">
<ellipse fill="none" stroke="black" cx="503" cy="-648" rx="124.176" ry="48.1667"/>
<text text-anchor="middle" x="503" y="-666.8" font-family="Times,serif" font-size="14.00">Node1</text>
<text text-anchor="start" x="423" y="-651.8" font-family="Times,serif" font-size="14.00">module = nn.CAddTable</text>
<text text-anchor="start" x="423" y="-636.8" font-family="Times,serif" font-size="14.00">reverseMap = {}</text>
<text text-anchor="middle" x="503" y="-621.8" font-family="Times,serif" font-size="14.00">mapindex = {Node5,Node6}</text>
</a>
</g>
</g>
<!-- n2 -->
<g id="node2" class="node"><title>n2</title>
<g id="a_node2"><a xlink:title="[[C]]:&#45;1_">
<ellipse fill="none" stroke="black" cx="660" cy="-48" rx="152.042" ry="48.1667"/>
<text text-anchor="middle" x="660" y="-66.8" font-family="Times,serif" font-size="14.00">Node2</text>
<text text-anchor="start" x="560.5" y="-51.8" font-family="Times,serif" font-size="14.00">input = {}</text>
<text text-anchor="start" x="560.5" y="-36.8" font-family="Times,serif" font-size="14.00">mapindex = {Node1,Node3,Node4}</text>
<text text-anchor="middle" x="660" y="-21.8" font-family="Times,serif" font-size="14.00">reverseMap = {}</text>
</a>
</g>
</g>
<!-- n1&#45;&gt;n2 -->
<g id="edge1" class="edge"><title>n1&#45;&gt;n2</title>
<path fill="none" stroke="black" d="M503,-599.701C503,-550.92 503,-472.642 503,-405 503,-405 503,-405 503,-281 503,-211.006 513.437,-189.042 554,-132 562.833,-119.578 574.045,-108.098 585.85,-97.8873"/>
<polygon fill="black" stroke="black" points="588.236,-100.456 593.675,-91.3633 583.753,-95.0792 588.236,-100.456"/>
</g>
<!-- n8 -->
<g id="node8" class="node"><title>n8</title>
<g id="a_node8"><a xlink:title="[./model/LSTM.lua]:48_">
<ellipse fill="none" stroke="black" cx="619" cy="-526" rx="84.2187" ry="37.4533"/>
<text text-anchor="middle" x="619" y="-537.3" font-family="Times,serif" font-size="14.00">Node8</text>
<text text-anchor="start" x="567.5" y="-522.3" font-family="Times,serif" font-size="14.00">module = nn.Tanh</text>
<text text-anchor="middle" x="619" y="-507.3" font-family="Times,serif" font-size="14.00">reverseMap = {}</text>
</a>
</g>
</g>
<!-- n1&#45;&gt;n8 -->
<g id="edge14" class="edge"><title>n1&#45;&gt;n8</title>
<path fill="none" stroke="black" d="M545.865,-602.657C556.877,-591.266 568.671,-579.064 579.504,-567.858"/>
<polygon fill="black" stroke="black" points="582.032,-570.279 586.466,-560.656 576.999,-565.413 582.032,-570.279"/>
</g>
<!-- n3 -->
<g id="node3" class="node"><title>n3</title>
<g id="a_node3"><a xlink:title="[./model/LSTM.lua]:48_">
<ellipse fill="none" stroke="black" cx="699" cy="-404" rx="124.176" ry="48.1667"/>
<text text-anchor="middle" x="699" y="-422.8" font-family="Times,serif" font-size="14.00">Node3</text>
<text text-anchor="start" x="619" y="-407.8" font-family="Times,serif" font-size="14.00">module = nn.CMulTable</text>
<text text-anchor="start" x="619" y="-392.8" font-family="Times,serif" font-size="14.00">reverseMap = {}</text>
<text text-anchor="middle" x="699" y="-377.8" font-family="Times,serif" font-size="14.00">mapindex = {Node7,Node8}</text>
</a>
</g>
</g>
<!-- n3&#45;&gt;n2 -->
<g id="edge2" class="edge"><title>n3&#45;&gt;n2</title>
<path fill="none" stroke="black" d="M763.128,-362.64C776.805,-350.711 789.405,-336.385 797,-320 811.205,-289.354 801.685,-277.451 797,-244 789.819,-192.731 793.807,-175.015 765,-132 756.621,-119.488 745.755,-107.992 734.199,-97.7993"/>
<polygon fill="black" stroke="black" points="736.416,-95.0897 726.525,-91.2919 731.889,-100.429 736.416,-95.0897"/>
</g>
<!-- n9 -->
<g id="node9" class="node"><title>n9</title>
<g id="a_node9"><a xlink:title="[./model/LSTM.lua]:57_">
<ellipse fill="none" stroke="black" cx="660" cy="-282" rx="128.54" ry="37.4533"/>
<text text-anchor="middle" x="660" y="-293.3" font-family="Times,serif" font-size="14.00">decoder (9)</text>
<text text-anchor="start" x="577" y="-278.3" font-family="Times,serif" font-size="14.00">module = nn.Linear(32 &#45;&gt; 10)</text>
<text text-anchor="middle" x="660" y="-263.3" font-family="Times,serif" font-size="14.00">reverseMap = {}</text>
</a>
</g>
</g>
<!-- n3&#45;&gt;n9 -->
<g id="edge15" class="edge"><title>n3&#45;&gt;n9</title>
<path fill="none" stroke="black" d="M683.81,-356.261C680.92,-347.368 677.896,-338.065 675.011,-329.189"/>
<polygon fill="black" stroke="black" points="678.247,-327.822 671.828,-319.393 671.59,-329.985 678.247,-327.822"/>
</g>
<!-- n4 -->
<g id="node4" class="node"><title>n4</title>
<g id="a_node4"><a xlink:title="[./model/LSTM.lua]:59_">
<ellipse fill="none" stroke="black" cx="660" cy="-170" rx="96.3112" ry="37.4533"/>
<text text-anchor="middle" x="660" y="-181.3" font-family="Times,serif" font-size="14.00">Node4</text>
<text text-anchor="start" x="599.5" y="-166.3" font-family="Times,serif" font-size="14.00">module = nn.Sigmoid</text>
<text text-anchor="middle" x="660" y="-151.3" font-family="Times,serif" font-size="14.00">reverseMap = {}</text>
</a>
</g>
</g>
<!-- n4&#45;&gt;n2 -->
<g id="edge3" class="edge"><title>n4&#45;&gt;n2</title>
<path fill="none" stroke="black" d="M660,-132.344C660,-124.219 660,-115.418 660,-106.683"/>
<polygon fill="black" stroke="black" points="663.5,-106.503 660,-96.5026 656.5,-106.503 663.5,-106.503"/>
</g>
<!-- n5 -->
<g id="node5" class="node"><title>n5</title>
<g id="a_node5"><a xlink:title="[./model/LSTM.lua]:44_">
<ellipse fill="none" stroke="black" cx="218" cy="-780" rx="133.465" ry="48.1667"/>
<text text-anchor="middle" x="218" y="-798.8" font-family="Times,serif" font-size="14.00">Node5</text>
<text text-anchor="start" x="131.5" y="-783.8" font-family="Times,serif" font-size="14.00">module = nn.CMulTable</text>
<text text-anchor="start" x="131.5" y="-768.8" font-family="Times,serif" font-size="14.00">reverseMap = {}</text>
<text text-anchor="middle" x="218" y="-753.8" font-family="Times,serif" font-size="14.00">mapindex = {Node10,Node11}</text>
</a>
</g>
</g>
<!-- n5&#45;&gt;n1 -->
<g id="edge4" class="edge"><title>n5&#45;&gt;n1</title>
<path fill="none" stroke="black" d="M299.67,-741.747C335.607,-725.355 377.899,-706.063 414.579,-689.333"/>
<polygon fill="black" stroke="black" points="416.13,-692.472 423.776,-685.137 413.225,-686.103 416.13,-692.472"/>
</g>
<!-- n6 -->
<g id="node6" class="node"><title>n6</title>
<g id="a_node6"><a xlink:title="[./model/LSTM.lua]:45_">
<ellipse fill="none" stroke="black" cx="503" cy="-780" rx="133.465" ry="48.1667"/>
<text text-anchor="middle" x="503" y="-798.8" font-family="Times,serif" font-size="14.00">Node6</text>
<text text-anchor="start" x="416.5" y="-783.8" font-family="Times,serif" font-size="14.00">module = nn.CMulTable</text>
<text text-anchor="start" x="416.5" y="-768.8" font-family="Times,serif" font-size="14.00">reverseMap = {}</text>
<text text-anchor="middle" x="503" y="-753.8" font-family="Times,serif" font-size="14.00">mapindex = {Node12,Node13}</text>
</a>
</g>
</g>
<!-- n6&#45;&gt;n1 -->
<g id="edge5" class="edge"><title>n6&#45;&gt;n1</title>
<path fill="none" stroke="black" d="M503,-731.699C503,-723.544 503,-714.987 503,-706.597"/>
<polygon fill="black" stroke="black" points="506.5,-706.483 503,-696.483 499.5,-706.483 506.5,-706.483"/>
</g>
<!-- n7 -->
<g id="node7" class="node"><title>n7</title>
<g id="a_node7"><a xlink:title="[./model/LSTM.lua]:39_">
<ellipse fill="none" stroke="black" cx="742" cy="-648" rx="96.3112" ry="37.4533"/>
<text text-anchor="middle" x="742" y="-659.3" font-family="Times,serif" font-size="14.00">Node7</text>
<text text-anchor="start" x="681.5" y="-644.3" font-family="Times,serif" font-size="14.00">module = nn.Sigmoid</text>
<text text-anchor="middle" x="742" y="-629.3" font-family="Times,serif" font-size="14.00">reverseMap = {}</text>
</a>
</g>
</g>
<!-- n7&#45;&gt;n3 -->
<g id="edge6" class="edge"><title>n7&#45;&gt;n3</title>
<path fill="none" stroke="black" d="M735.516,-610.508C728.536,-571.226 717.339,-508.209 709.182,-462.303"/>
<polygon fill="black" stroke="black" points="712.582,-461.432 707.387,-452.199 705.69,-462.657 712.582,-461.432"/>
</g>
<!-- n8&#45;&gt;n3 -->
<g id="edge7" class="edge"><title>n8&#45;&gt;n3</title>
<path fill="none" stroke="black" d="M642.354,-489.968C648.696,-480.456 655.717,-469.925 662.594,-459.608"/>
<polygon fill="black" stroke="black" points="665.685,-461.282 668.32,-451.02 659.861,-457.399 665.685,-461.282"/>
</g>
<!-- n9&#45;&gt;n4 -->
<g id="edge8" class="edge"><title>n9&#45;&gt;n4</title>
<path fill="none" stroke="black" d="M660,-244.372C660,-235.927 660,-226.829 660,-218.011"/>
<polygon fill="black" stroke="black" points="663.5,-217.843 660,-207.844 656.5,-217.844 663.5,-217.843"/>
</g>
<!-- n10 -->
<g id="node10" class="node"><title>n10</title>
<g id="a_node10"><a xlink:title="[./model/LSTM.lua]:38_">
<ellipse fill="none" stroke="black" cx="219" cy="-902" rx="96.3112" ry="37.4533"/>
<text text-anchor="middle" x="219" y="-913.3" font-family="Times,serif" font-size="14.00">Node10</text>
<text text-anchor="start" x="158.5" y="-898.3" font-family="Times,serif" font-size="14.00">module = nn.Sigmoid</text>
<text text-anchor="middle" x="219" y="-883.3" font-family="Times,serif" font-size="14.00">reverseMap = {}</text>
</a>
</g>
</g>
<!-- n10&#45;&gt;n5 -->
<g id="edge9" class="edge"><title>n10&#45;&gt;n5</title>
<path fill="none" stroke="black" d="M218.695,-864.344C218.627,-856.219 218.553,-847.418 218.481,-838.683"/>
<polygon fill="black" stroke="black" points="221.979,-838.473 218.396,-828.503 214.979,-838.531 221.979,-838.473"/>
</g>
<!-- n11 -->
<g id="node11" class="node"><title>n11</title>
<g id="a_node11"><a xlink:title="[./model/LSTM.lua]:10_">
<ellipse fill="none" stroke="black" cx="94" cy="-1614" rx="94.0678" ry="37.4533"/>
<text text-anchor="middle" x="94" y="-1625.3" font-family="Times,serif" font-size="14.00">Node11</text>
<text text-anchor="start" x="35.5" y="-1610.3" font-family="Times,serif" font-size="14.00">module = nn.Identity</text>
<text text-anchor="middle" x="94" y="-1595.3" font-family="Times,serif" font-size="14.00">reverseMap = {}</text>
</a>
</g>
</g>
<!-- n11&#45;&gt;n5 -->
<g id="edge10" class="edge"><title>n11&#45;&gt;n5</title>
<path fill="none" stroke="black" d="M94,-1576.51C94,-1529.14 94,-1443.89 94,-1371 94,-1371 94,-1371 94,-1023 94,-951.831 78.2312,-926.098 113,-864 120.496,-850.611 131.112,-838.607 142.738,-828.164"/>
<polygon fill="black" stroke="black" points="145.175,-830.686 150.502,-821.528 140.626,-825.365 145.175,-830.686"/>
</g>
<!-- n12 -->
<g id="node12" class="node"><title>n12</title>
<g id="a_node12"><a xlink:title="[./model/LSTM.lua]:37_">
<ellipse fill="none" stroke="black" cx="431" cy="-902" rx="96.3112" ry="37.4533"/>
<text text-anchor="middle" x="431" y="-913.3" font-family="Times,serif" font-size="14.00">Node12</text>
<text text-anchor="start" x="370.5" y="-898.3" font-family="Times,serif" font-size="14.00">module = nn.Sigmoid</text>
<text text-anchor="middle" x="431" y="-883.3" font-family="Times,serif" font-size="14.00">reverseMap = {}</text>
</a>
</g>
</g>
<!-- n12&#45;&gt;n6 -->
<g id="edge11" class="edge"><title>n12&#45;&gt;n6</title>
<path fill="none" stroke="black" d="M452.407,-865.321C457.922,-856.13 463.986,-846.023 469.942,-836.096"/>
<polygon fill="black" stroke="black" points="472.989,-837.822 475.132,-827.446 466.986,-834.22 472.989,-837.822"/>
</g>
<!-- n13 -->
<g id="node13" class="node"><title>n13</title>
<g id="a_node13"><a xlink:title="[./model/LSTM.lua]:41_">
<ellipse fill="none" stroke="black" cx="630" cy="-902" rx="84.2187" ry="37.4533"/>
<text text-anchor="middle" x="630" y="-913.3" font-family="Times,serif" font-size="14.00">Node13</text>
<text text-anchor="start" x="578.5" y="-898.3" font-family="Times,serif" font-size="14.00">module = nn.Tanh</text>
<text text-anchor="middle" x="630" y="-883.3" font-family="Times,serif" font-size="14.00">reverseMap = {}</text>
</a>
</g>
</g>
<!-- n13&#45;&gt;n6 -->
<g id="edge12" class="edge"><title>n13&#45;&gt;n6</title>
<path fill="none" stroke="black" d="M594.961,-867.892C583.299,-856.873 570.023,-844.329 557.257,-832.266"/>
<polygon fill="black" stroke="black" points="559.488,-829.559 549.815,-825.235 554.68,-834.647 559.488,-829.559"/>
</g>
<!-- n14 -->
<g id="node14" class="node"><title>n14</title>
<g id="a_node14"><a xlink:title="[./model/LSTM.lua]:35_&#45;3">
<ellipse fill="none" stroke="black" cx="742" cy="-780" rx="77.1743" ry="48.1667"/>
<text text-anchor="middle" x="742" y="-798.8" font-family="Times,serif" font-size="14.00">Node14</text>
<text text-anchor="start" x="695" y="-783.8" font-family="Times,serif" font-size="14.00">input = {}</text>
<text text-anchor="start" x="695" y="-768.8" font-family="Times,serif" font-size="14.00">selectindex = 3</text>
<text text-anchor="middle" x="742" y="-753.8" font-family="Times,serif" font-size="14.00">reverseMap = {}</text>
</a>
</g>
</g>
<!-- n14&#45;&gt;n7 -->
<g id="edge13" class="edge"><title>n14&#45;&gt;n7</title>
<path fill="none" stroke="black" d="M742,-731.699C742,-720.138 742,-707.768 742,-696.211"/>
<polygon fill="black" stroke="black" points="745.5,-695.872 742,-685.872 738.5,-695.873 745.5,-695.872"/>
</g>
<!-- n15 -->
<g id="node15" class="node"><title>n15</title>
<g id="a_node15"><a xlink:title="[./model/LSTM.lua]:35_&#45;2">
<ellipse fill="none" stroke="black" cx="244" cy="-1024" rx="77.1743" ry="48.1667"/>
<text text-anchor="middle" x="244" y="-1042.8" font-family="Times,serif" font-size="14.00">Node15</text>
<text text-anchor="start" x="197" y="-1027.8" font-family="Times,serif" font-size="14.00">input = {}</text>
<text text-anchor="start" x="197" y="-1012.8" font-family="Times,serif" font-size="14.00">selectindex = 2</text>
<text text-anchor="middle" x="244" y="-997.8" font-family="Times,serif" font-size="14.00">reverseMap = {}</text>
</a>
</g>
</g>
<!-- n15&#45;&gt;n10 -->
<g id="edge16" class="edge"><title>n15&#45;&gt;n10</title>
<path fill="none" stroke="black" d="M234.263,-976.261C232.41,-967.368 230.472,-958.065 228.623,-949.189"/>
<polygon fill="black" stroke="black" points="232.048,-948.469 226.582,-939.393 225.195,-949.897 232.048,-948.469"/>
</g>
<!-- n16 -->
<g id="node16" class="node"><title>n16</title>
<g id="a_node16"><a xlink:title="[[C]]:&#45;1_&#45;2">
<ellipse fill="none" stroke="black" cx="94" cy="-1848" rx="77.1743" ry="48.1667"/>
<text text-anchor="middle" x="94" y="-1866.8" font-family="Times,serif" font-size="14.00">Node16</text>
<text text-anchor="start" x="47" y="-1851.8" font-family="Times,serif" font-size="14.00">input = {}</text>
<text text-anchor="start" x="47" y="-1836.8" font-family="Times,serif" font-size="14.00">selectindex = 2</text>
<text text-anchor="middle" x="94" y="-1821.8" font-family="Times,serif" font-size="14.00">reverseMap = {}</text>
</a>
</g>
</g>
<!-- n16&#45;&gt;n11 -->
<g id="edge17" class="edge"><title>n16&#45;&gt;n11</title>
<path fill="none" stroke="black" d="M94,-1799.77C94,-1759.43 94,-1701.72 94,-1661.57"/>
<polygon fill="black" stroke="black" points="97.5001,-1661.51 94,-1651.51 90.5001,-1661.51 97.5001,-1661.51"/>
</g>
<!-- n17 -->
<g id="node17" class="node"><title>n17</title>
<g id="a_node17"><a xlink:title="[./model/LSTM.lua]:35_&#45;1">
<ellipse fill="none" stroke="black" cx="437" cy="-1024" rx="77.1743" ry="48.1667"/>
<text text-anchor="middle" x="437" y="-1042.8" font-family="Times,serif" font-size="14.00">Node17</text>
<text text-anchor="start" x="390" y="-1027.8" font-family="Times,serif" font-size="14.00">input = {}</text>
<text text-anchor="start" x="390" y="-1012.8" font-family="Times,serif" font-size="14.00">selectindex = 1</text>
<text text-anchor="middle" x="437" y="-997.8" font-family="Times,serif" font-size="14.00">reverseMap = {}</text>
</a>
</g>
</g>
<!-- n17&#45;&gt;n12 -->
<g id="edge18" class="edge"><title>n17&#45;&gt;n12</title>
<path fill="none" stroke="black" d="M434.646,-975.917C434.216,-967.328 433.768,-958.368 433.339,-949.787"/>
<polygon fill="black" stroke="black" points="436.823,-949.372 432.828,-939.559 429.832,-949.721 436.823,-949.372"/>
</g>
<!-- n18 -->
<g id="node18" class="node"><title>n18</title>
<g id="a_node18"><a xlink:title="[./model/LSTM.lua]:35_&#45;4">
<ellipse fill="none" stroke="black" cx="618" cy="-1024" rx="77.1743" ry="48.1667"/>
<text text-anchor="middle" x="618" y="-1042.8" font-family="Times,serif" font-size="14.00">Node18</text>
<text text-anchor="start" x="571" y="-1027.8" font-family="Times,serif" font-size="14.00">input = {}</text>
<text text-anchor="start" x="571" y="-1012.8" font-family="Times,serif" font-size="14.00">selectindex = 4</text>
<text text-anchor="middle" x="618" y="-997.8" font-family="Times,serif" font-size="14.00">reverseMap = {}</text>
</a>
</g>
</g>
<!-- n18&#45;&gt;n13 -->
<g id="edge19" class="edge"><title>n18&#45;&gt;n13</title>
<path fill="none" stroke="black" d="M622.708,-975.917C623.567,-967.328 624.463,-958.368 625.321,-949.787"/>
<polygon fill="black" stroke="black" points="628.832,-949.858 626.344,-939.559 621.866,-949.161 628.832,-949.858"/>
</g>
<!-- n19 -->
<g id="node19" class="node"><title>n19</title>
<g id="a_node19"><a xlink:title="[./model/LSTM.lua]:35_ split at [./model/LSTM.lua]:35&#45;mnode">
<ellipse fill="none" stroke="black" cx="449" cy="-1146" rx="80.415" ry="37.4533"/>
<text text-anchor="middle" x="449" y="-1157.3" font-family="Times,serif" font-size="14.00">Node19</text>
<text text-anchor="start" x="400" y="-1142.3" font-family="Times,serif" font-size="14.00">reverseMap = {}</text>
<text text-anchor="middle" x="449" y="-1127.3" font-family="Times,serif" font-size="14.00">nSplitOutputs = 4</text>
</a>
</g>
</g>
<!-- n19&#45;&gt;n14 -->
<g id="edge20" class="edge"><title>n19&#45;&gt;n14</title>
<path fill="none" stroke="black" d="M524.202,-1132.73C590.572,-1120.32 680.347,-1099.11 704,-1072 760.202,-1007.59 759.059,-902.62 751.596,-837.915"/>
<polygon fill="black" stroke="black" points="755.057,-837.382 750.352,-827.889 748.11,-838.244 755.057,-837.382"/>
</g>
<!-- n19&#45;&gt;n15 -->
<g id="edge21" class="edge"><title>n19&#45;&gt;n15</title>
<path fill="none" stroke="black" d="M399.897,-1116.26C372.524,-1100.23 338.101,-1080.08 308.569,-1062.8"/>
<polygon fill="black" stroke="black" points="309.972,-1059.56 299.574,-1057.53 306.436,-1065.6 309.972,-1059.56"/>
</g>
<!-- n19&#45;&gt;n17 -->
<g id="edge23" class="edge"><title>n19&#45;&gt;n17</title>
<path fill="none" stroke="black" d="M445.334,-1108.34C444.503,-1100.03 443.601,-1091.01 442.707,-1082.07"/>
<polygon fill="black" stroke="black" points="446.184,-1081.67 441.707,-1072.07 439.219,-1082.37 446.184,-1081.67"/>
</g>
<!-- n19&#45;&gt;n18 -->
<g id="edge24" class="edge"><title>n19&#45;&gt;n18</title>
<path fill="none" stroke="black" d="M492.522,-1114.1C512.901,-1099.63 537.476,-1082.18 559.457,-1066.57"/>
<polygon fill="black" stroke="black" points="561.612,-1069.33 567.739,-1060.69 557.56,-1063.62 561.612,-1069.33"/>
</g>
<!-- n20 -->
<g id="node20" class="node"><title>n20</title>
<g id="a_node20"><a xlink:title="[[C]]:&#45;1_ split at [...yu/tools/torch/install/share/lua/5.1/nngraph/gmodule.lua]:72&#45;mnode">
<ellipse fill="none" stroke="black" cx="284" cy="-2102" rx="80.415" ry="37.4533"/>
<text text-anchor="middle" x="284" y="-2113.3" font-family="Times,serif" font-size="14.00">Node20</text>
<text text-anchor="start" x="235" y="-2098.3" font-family="Times,serif" font-size="14.00">reverseMap = {}</text>
<text text-anchor="middle" x="284" y="-2083.3" font-family="Times,serif" font-size="14.00">nSplitOutputs = 3</text>
</a>
</g>
</g>
<!-- n20&#45;&gt;n16 -->
<g id="edge22" class="edge"><title>n20&#45;&gt;n16</title>
<path fill="none" stroke="black" d="M241.006,-2069.91C226.029,-2057.85 209.79,-2043.26 197,-2028 165.158,-1990 137.663,-1940.82 119.11,-1903.63"/>
<polygon fill="black" stroke="black" points="122.146,-1901.88 114.588,-1894.45 115.866,-1904.97 122.146,-1901.88"/>
</g>
<!-- n30 -->
<g id="node30" class="node"><title>n30</title>
<g id="a_node30"><a xlink:title="[[C]]:&#45;1_&#45;3">
<ellipse fill="none" stroke="black" cx="284" cy="-1980" rx="77.1743" ry="48.1667"/>
<text text-anchor="middle" x="284" y="-1998.8" font-family="Times,serif" font-size="14.00">Node30</text>
<text text-anchor="start" x="237" y="-1983.8" font-family="Times,serif" font-size="14.00">input = {}</text>
<text text-anchor="start" x="237" y="-1968.8" font-family="Times,serif" font-size="14.00">selectindex = 3</text>
<text text-anchor="middle" x="284" y="-1953.8" font-family="Times,serif" font-size="14.00">reverseMap = {}</text>
</a>
</g>
</g>
<!-- n20&#45;&gt;n30 -->
<g id="edge36" class="edge"><title>n20&#45;&gt;n30</title>
<path fill="none" stroke="black" d="M284,-2064.34C284,-2056.22 284,-2047.42 284,-2038.68"/>
<polygon fill="black" stroke="black" points="287.5,-2038.5 284,-2028.5 280.5,-2038.5 287.5,-2038.5"/>
</g>
<!-- n31 -->
<g id="node31" class="node"><title>n31</title>
<g id="a_node31"><a xlink:title="[[C]]:&#45;1_&#45;1">
<ellipse fill="none" stroke="black" cx="477" cy="-1980" rx="77.1743" ry="48.1667"/>
<text text-anchor="middle" x="477" y="-1998.8" font-family="Times,serif" font-size="14.00">Node31</text>
<text text-anchor="start" x="430" y="-1983.8" font-family="Times,serif" font-size="14.00">input = {}</text>
<text text-anchor="start" x="430" y="-1968.8" font-family="Times,serif" font-size="14.00">selectindex = 1</text>
<text text-anchor="middle" x="477" y="-1953.8" font-family="Times,serif" font-size="14.00">reverseMap = {}</text>
</a>
</g>
</g>
<!-- n20&#45;&gt;n31 -->
<g id="edge37" class="edge"><title>n20&#45;&gt;n31</title>
<path fill="none" stroke="black" d="M331.213,-2071.64C356.186,-2056.12 387.179,-2036.85 414.159,-2020.07"/>
<polygon fill="black" stroke="black" points="416.121,-2022.97 422.765,-2014.72 412.425,-2017.03 416.121,-2022.97"/>
</g>
<!-- n21 -->
<g id="node21" class="node"><title>n21</title>
<g id="a_node21"><a xlink:title="[./model/LSTM.lua]:35_">
<ellipse fill="none" stroke="black" cx="449" cy="-1258" rx="103.417" ry="37.4533"/>
<text text-anchor="middle" x="449" y="-1269.3" font-family="Times,serif" font-size="14.00">Node21</text>
<text text-anchor="start" x="383.5" y="-1254.3" font-family="Times,serif" font-size="14.00">module = nn.SplitTable</text>
<text text-anchor="middle" x="449" y="-1239.3" font-family="Times,serif" font-size="14.00">reverseMap = {}</text>
</a>
</g>
</g>
<!-- n21&#45;&gt;n19 -->
<g id="edge25" class="edge"><title>n21&#45;&gt;n19</title>
<path fill="none" stroke="black" d="M449,-1220.37C449,-1211.93 449,-1202.83 449,-1194.01"/>
<polygon fill="black" stroke="black" points="452.5,-1193.84 449,-1183.84 445.5,-1193.84 452.5,-1193.84"/>
</g>
<!-- n22 -->
<g id="node22" class="node"><title>n22</title>
<g id="a_node22"><a xlink:title="[[C]]:&#45;1_">
<ellipse fill="none" stroke="black" cx="284" cy="-2214" rx="77.1743" ry="37.4533"/>
<text text-anchor="middle" x="284" y="-2225.3" font-family="Times,serif" font-size="14.00">Node22</text>
<text text-anchor="start" x="237" y="-2210.3" font-family="Times,serif" font-size="14.00">input = {}</text>
<text text-anchor="middle" x="284" y="-2195.3" font-family="Times,serif" font-size="14.00">reverseMap = {}</text>
</a>
</g>
</g>
<!-- n22&#45;&gt;n20 -->
<g id="edge26" class="edge"><title>n22&#45;&gt;n20</title>
<path fill="none" stroke="black" d="M284,-2176.37C284,-2167.93 284,-2158.83 284,-2150.01"/>
<polygon fill="black" stroke="black" points="287.5,-2149.84 284,-2139.84 280.5,-2149.84 287.5,-2149.84"/>
</g>
<!-- n23 -->
<g id="node23" class="node"><title>n23</title>
<g id="a_node23"><a xlink:title="[./model/LSTM.lua]:34_">
<ellipse fill="none" stroke="black" cx="449" cy="-1370" rx="121.995" ry="37.4533"/>
<text text-anchor="middle" x="449" y="-1381.3" font-family="Times,serif" font-size="14.00">Node23</text>
<text text-anchor="start" x="370.5" y="-1366.3" font-family="Times,serif" font-size="14.00">module = nn.Reshape(4x32)</text>
<text text-anchor="middle" x="449" y="-1351.3" font-family="Times,serif" font-size="14.00">reverseMap = {}</text>
</a>
</g>
</g>
<!-- n23&#45;&gt;n21 -->
<g id="edge27" class="edge"><title>n23&#45;&gt;n21</title>
<path fill="none" stroke="black" d="M449,-1332.37C449,-1323.93 449,-1314.83 449,-1306.01"/>
<polygon fill="black" stroke="black" points="452.5,-1305.84 449,-1295.84 445.5,-1305.84 452.5,-1305.84"/>
</g>
<!-- n24 -->
<g id="node24" class="node"><title>n24</title>
<g id="a_node24"><a xlink:title="[./model/LSTM.lua]:32_">
<ellipse fill="none" stroke="black" cx="449" cy="-1492" rx="133.465" ry="48.1667"/>
<text text-anchor="middle" x="449" y="-1510.8" font-family="Times,serif" font-size="14.00">Node24</text>
<text text-anchor="start" x="362.5" y="-1495.8" font-family="Times,serif" font-size="14.00">module = nn.CAddTable</text>
<text text-anchor="start" x="362.5" y="-1480.8" font-family="Times,serif" font-size="14.00">reverseMap = {}</text>
<text text-anchor="middle" x="449" y="-1465.8" font-family="Times,serif" font-size="14.00">mapindex = {Node25,Node26}</text>
</a>
</g>
</g>
<!-- n24&#45;&gt;n23 -->
<g id="edge28" class="edge"><title>n24&#45;&gt;n23</title>
<path fill="none" stroke="black" d="M449,-1443.57C449,-1435.1 449,-1426.27 449,-1417.81"/>
<polygon fill="black" stroke="black" points="452.5,-1417.72 449,-1407.72 445.5,-1417.72 452.5,-1417.72"/>
</g>
<!-- n25 -->
<g id="node25" class="node"><title>n25</title>
<g id="a_node25"><a xlink:title="[./model/LSTM.lua]:30_">
<ellipse fill="none" stroke="black" cx="478" cy="-1614" rx="133.465" ry="37.4533"/>
<text text-anchor="middle" x="478" y="-1625.3" font-family="Times,serif" font-size="14.00">i2h_1 (25)</text>
<text text-anchor="start" x="391.5" y="-1610.3" font-family="Times,serif" font-size="14.00">module = nn.Linear(52 &#45;&gt; 128)</text>
<text text-anchor="middle" x="478" y="-1595.3" font-family="Times,serif" font-size="14.00">reverseMap = {}</text>
</a>
</g>
</g>
<!-- n25&#45;&gt;n24 -->
<g id="edge29" class="edge"><title>n25&#45;&gt;n24</title>
<path fill="none" stroke="black" d="M469.141,-1576.34C467.132,-1568.03 464.952,-1559.01 462.793,-1550.07"/>
<polygon fill="black" stroke="black" points="466.126,-1548.96 460.374,-1540.07 459.321,-1550.61 466.126,-1548.96"/>
</g>
<!-- n26 -->
<g id="node26" class="node"><title>n26</title>
<g id="a_node26"><a xlink:title="[./model/LSTM.lua]:31_">
<ellipse fill="none" stroke="black" cx="277" cy="-1726" rx="133.465" ry="37.4533"/>
<text text-anchor="middle" x="277" y="-1737.3" font-family="Times,serif" font-size="14.00">h2h_1 (26)</text>
<text text-anchor="start" x="190.5" y="-1722.3" font-family="Times,serif" font-size="14.00">module = nn.Linear(32 &#45;&gt; 128)</text>
<text text-anchor="middle" x="277" y="-1707.3" font-family="Times,serif" font-size="14.00">reverseMap = {}</text>
</a>
</g>
</g>
<!-- n26&#45;&gt;n24 -->
<g id="edge30" class="edge"><title>n26&#45;&gt;n24</title>
<path fill="none" stroke="black" d="M285.026,-1688.39C293.428,-1656.3 309.083,-1609.65 335,-1576 345.365,-1562.54 358.486,-1550.28 372.107,-1539.56"/>
<polygon fill="black" stroke="black" points="374.329,-1542.27 380.168,-1533.43 370.09,-1536.7 374.329,-1542.27"/>
</g>
<!-- n27 -->
<g id="node27" class="node"><title>n27</title>
<g id="a_node27"><a xlink:title="[./model/LSTM.lua]:22_">
<ellipse fill="none" stroke="black" cx="511" cy="-1726" rx="82.0366" ry="37.4533"/>
<text text-anchor="middle" x="511" y="-1737.3" font-family="Times,serif" font-size="14.00">Node27</text>
<text text-anchor="start" x="461" y="-1722.3" font-family="Times,serif" font-size="14.00">module = OneHot</text>
<text text-anchor="middle" x="511" y="-1707.3" font-family="Times,serif" font-size="14.00">reverseMap = {}</text>
</a>
</g>
</g>
<!-- n27&#45;&gt;n25 -->
<g id="edge31" class="edge"><title>n27&#45;&gt;n25</title>
<path fill="none" stroke="black" d="M500.103,-1688.68C497.484,-1679.95 494.65,-1670.5 491.914,-1661.38"/>
<polygon fill="black" stroke="black" points="495.224,-1660.23 488.998,-1651.66 488.519,-1662.24 495.224,-1660.23"/>
</g>
<!-- n28 -->
<g id="node28" class="node"><title>n28</title>
<g id="a_node28"><a xlink:title="[./model/LSTM.lua]:11_">
<ellipse fill="none" stroke="black" cx="284" cy="-1848" rx="94.0678" ry="37.4533"/>
<text text-anchor="middle" x="284" y="-1859.3" font-family="Times,serif" font-size="14.00">Node28</text>
<text text-anchor="start" x="225.5" y="-1844.3" font-family="Times,serif" font-size="14.00">module = nn.Identity</text>
<text text-anchor="middle" x="284" y="-1829.3" font-family="Times,serif" font-size="14.00">reverseMap = {}</text>
</a>
</g>
</g>
<!-- n28&#45;&gt;n26 -->
<g id="edge32" class="edge"><title>n28&#45;&gt;n26</title>
<path fill="none" stroke="black" d="M281.862,-1810.34C281.196,-1798.94 280.453,-1786.19 279.752,-1774.17"/>
<polygon fill="black" stroke="black" points="283.226,-1773.62 279.149,-1763.85 276.238,-1774.03 283.226,-1773.62"/>
</g>
<!-- n29 -->
<g id="node29" class="node"><title>n29</title>
<g id="a_node29"><a xlink:title="[./model/LSTM.lua]:8_">
<ellipse fill="none" stroke="black" cx="497" cy="-1848" rx="94.0678" ry="37.4533"/>
<text text-anchor="middle" x="497" y="-1859.3" font-family="Times,serif" font-size="14.00">Node29</text>
<text text-anchor="start" x="438.5" y="-1844.3" font-family="Times,serif" font-size="14.00">module = nn.Identity</text>
<text text-anchor="middle" x="497" y="-1829.3" font-family="Times,serif" font-size="14.00">reverseMap = {}</text>
</a>
</g>
</g>
<!-- n29&#45;&gt;n27 -->
<g id="edge33" class="edge"><title>n29&#45;&gt;n27</title>
<path fill="none" stroke="black" d="M501.277,-1810.34C502.634,-1798.71 504.152,-1785.7 505.579,-1773.47"/>
<polygon fill="black" stroke="black" points="509.067,-1773.77 506.75,-1763.43 502.114,-1772.96 509.067,-1773.77"/>
</g>
<!-- n30&#45;&gt;n28 -->
<g id="edge34" class="edge"><title>n30&#45;&gt;n28</title>
<path fill="none" stroke="black" d="M284,-1931.7C284,-1920.14 284,-1907.77 284,-1896.21"/>
<polygon fill="black" stroke="black" points="287.5,-1895.87 284,-1885.87 280.5,-1895.87 287.5,-1895.87"/>
</g>
<!-- n31&#45;&gt;n29 -->
<g id="edge35" class="edge"><title>n31&#45;&gt;n29</title>
<path fill="none" stroke="black" d="M484.22,-1932.07C486.038,-1920.25 487.988,-1907.58 489.804,-1895.77"/>
<polygon fill="black" stroke="black" points="493.298,-1896.08 491.359,-1885.67 486.379,-1895.02 493.298,-1896.08"/>
</g>
</g>
</svg>
